<svg id="Layer_1" data-name="Layer 1" xmlns="http://www.w3.org/2000/svg" viewBox="0 0 172.5 87.38"><defs><style>.cls-1{fill:#fff;}.cls-1,.cls-2{stroke:#000;stroke-miterlimit:10;}.cls-2{fill:none;}</style></defs><title>responsive_design</title><g id="responsive_design" data-name="responsive design"><path class="cls-1" d="M113.54,184.35" transform="translate(-83 -115)"/><polygon class="cls-2" points="0.5 0.5 108.16 0.5 108.16 23.03 144.46 23.03 144.46 61.84 172 61.84 172 86.88 94.39 86.88 94.39 73.11 66.85 73.11 71.85 86.88 36.8 86.88 41.81 73.11 0.5 73.11 0.5 0.5"/><polygon class="cls-2" points="104.4 23.03 104.4 4.25 4.25 4.25 4.25 60.59 94.39 60.59 94.39 23.03 104.4 23.03"/><polygon class="cls-2" points="100.65 29.29 139.45 29.29 139.45 61.84 121.93 61.84 121.93 80.62 100.65 80.62 100.65 29.29"/><polygon class="cls-2" points="131.94 64.34 163.24 64.34 163.24 84.37 130.69 84.37 130.69 64.34 131.94 64.34"/><line class="cls-2" x1="166.99" y1="73.11" x2="166.99" y2="76.86"/><line class="cls-2" x1="166.99" y1="69.35" x2="166.99" y2="71.85"/><circle class="cls-2" cx="126.31" cy="73.73" r="1.88"/><circle class="cls-2" cx="118.8" cy="26.16" r="0.63"/></g></svg>