<svg id="Layer_1" data-name="Layer 1" xmlns="http://www.w3.org/2000/svg" viewBox="0 0 89 124.52"><defs><style>.cls-1,.cls-3{fill:none;}.cls-1,.cls-2,.cls-3{stroke:#000;stroke-miterlimit:10;}.cls-1,.cls-2{stroke-width:8px;}.cls-3{stroke-width:4px;}</style></defs><title>user_experience</title><g id="user_experience" data-name="user experience"><path class="cls-1" d="M818.67,218.49H789.55s-4.55.91-4.55-7.28V106.55s0-4.55,5.46-4.55h69.17s6.37,0,6.37,5.46V213.94s0,4.55-5.46,4.55h-7.28" transform="translate(-781 -98)"/><path class="cls-2" d="M847.8,218.49v-7.28s2.73-7.28,2.73-10,.91-10,0-12.74-3.64-8.19-7.28-9.1L825,175.72,824.13,153s0-2.73-1.82-3.64a2,2,0,0,0-2.73.91v46.41l-11.83-16.38s-3.64-5.46-4.55-3.64,0,2.73,0,2.73l5.46,7.28,5.46,7.28,6.37,9.1,3.64,5.46v10Z" transform="translate(-781 -98)"/><circle class="cls-3" cx="40.86" cy="53.6" r="11.38"/><circle class="cls-3" cx="40.86" cy="53.6" r="20.48"/></g></svg>